PathFileType	4	(X/Y/Z)	/Users/itak/Documents/Research/Walk-IL/dataset/trc/00052_00006.trc
DataRate	CameraRate	NumFrames	NumMarkers	Units	OrigDataRate	OrigDataStartFrame	OrigNumFrames
100.000000	100.000000	4	53	mm	100.000000	132	530
Frame#	Time	RPSI			LPSI			L3			STRN			T10			C7			CLAV			RBAK			LBAK			LSHO			LUPA			LAEL			LAOL			LWTS			LWPS			LFRA			LIFD			LHPS			LHTS			RSHO			RUPA			RAEL			RAOL			RWTS			RWPS			RFRA			RIFD			RHTS			RHPS			RBHD			LFHD			RFHD			LBHD			LHIP			RHIP			RASI			LASI			LKNE			LTHI			LANK			LTIP			LTOE			LMT1			LMT5			LHEE			RKNE			RTHI			RANK			RTIP			RTOE			RMT1			RMT5			RHEE			
		X1	Y1	Z1	X2	Y2	Z2	X3	Y3	Z3	X4	Y4	Z4	X5	Y5	Z5	X6	Y6	Z6	X7	Y7	Z7	X8	Y8	Z8	X9	Y9	Z9	X10	Y10	Z10	X11	Y11	Z11	X12	Y12	Z12	X13	Y13	Z13	X14	Y14	Z14	X15	Y15	Z15	X16	Y16	Z16	X17	Y17	Z17	X18	Y18	Z18	X19	Y19	Z19	X20	Y20	Z20	X21	Y21	Z21	X22	Y22	Z22	X23	Y23	Z23	X24	Y24	Z24	X25	Y25	Z25	X26	Y26	Z26	X27	Y27	Z27	X28	Y28	Z28	X29	Y29	Z29	X30	Y30	Z30	X31	Y31	Z31	X32	Y32	Z32	X33	Y33	Z33	X34	Y34	Z34	X35	Y35	Z35	X36	Y36	Z36	X37	Y37	Z37	X38	Y38	Z38	X39	Y39	Z39	X40	Y40	Z40	X41	Y41	Z41	X42	Y42	Z42	X43	Y43	Z43	X44	Y44	Z44	X45	Y45	Z45	X46	Y46	Z46	X47	Y47	Z47	X48	Y48	Z48	X49	Y49	Z49	X50	Y50	Z50	X51	Y51	Z51	X52	Y52	Z52	X53	Y53	Z53	

133	1.32	920.2274780273438	1028.160766601562	-190.8557281494141	902.7882080078125	1021.908569335938	-366.3825988769531	916.9080200195312	1076.846435546875	-286.3883361816406	1159.759155273438	1272.081787109375	-292.62646484375	894.4432983398438	1210.110717773438	-294.0701293945312	951.5723876953125	1477.2841796875	-299.2620849609375	1130.736206054688	1386.963623046875	-295.7344970703125	888.145751953125	1339.178588867188	-222.8625640869141	931.042236328125	1439.111450195312	-400.9036560058594	1036.694213867188	1441.918212890625	-471.4122924804688	1025.195434570312	1312.929931640625	-547.2349243164062	1056.951416015625	1097.528198242188	-559.7596435546875	992.0527954101562	1081.977294921875	-477.6661071777344	1154.933837890625	863.4508056640625	-488.320556640625	1100.557861328125	849.109130859375	-551.024169921875	1082.530395507812	989.5609130859375	-564.175048828125	1177.04931640625	677.4859008789062	-467.8970336914062	1136.500122070312	769.4185180664062	-543.3155517578125	1180.239013671875	781.7219848632812	-488.226318359375	1015.250183105469	1440.323608398438	-122.1427917480469	1005.044128417969	1370.327392578125	-58.70607376098633	980.7880859375	1102.98486328125	-35.28348541259766	999.6878662109375	1083.33251953125	-130.7531280517578	1134.845092773438	859.3182373046875	-78.77322387695312	1066.066772460938	839.1154174804688	-29.29613876342773	997.7199096679688	1022.857116699219	-29.67843437194824	1154.256225585938	671.5371704101562	-100.3277969360352	1164.737060546875	760.9151000976562	-83.34869384765625	1107.9384765625	750.6336059570312	-29.9808349609375	996.1174926757812	1656.7138671875	-363.1775817871094	1158.090209960938	1685.519165039062	-222.0944671630859	1170.976684570312	1691.360107421875	-347.2363891601562	991.2302856445312	1643.301513671875	-226.4046173095703	999.9271240234375	953.259521484375	-459.9974670410156	989.8120727539062	954.4530639648438	-117.304069519043	1112.6728515625	966.1552734375	-143.1221923828125	1116.984497070312	959.146240234375	-412.1238403320312	1046.225708007812	488.7880554199219	-417.8485107421875	1023.55810546875	630.407470703125	-453.9883422851562	950.5722045898438	38.88036346435547	-439.3233337402344	990.2034912109375	255.6635437011719	-443.0898132324219	1156.410888671875	30.93338012695312	-431.0485229492188	1106.779541015625	32.01015090942383	-377.61279296875	1054.009521484375	28.17103385925293	-477.0453186035156	897.56005859375	36.2039680480957	-364.76953125	1042.814086914062	506.2342224121094	-138.2998199462891	1064.06298828125	777.564208984375	-107.2787246704102	941.6896362304688	36.16648864746094	-139.0602569580078	1016.122985839844	387.2435913085938	-131.6361694335938	1158.760986328125	28.66799163818359	-167.4951019287109	1098.822631835938	34.06711196899414	-210.0303802490234	1065.324951171875	36.71974945068359	-119.0703659057617	895.456787109375	37.35913848876953	-196.5698699951172	
134	1.33	920.1467895507812	1028.121459960938	-190.6918334960938	902.53369140625	1021.950256347656	-366.2319641113281	916.7484130859375	1076.8974609375	-286.2643432617188	1159.585083007812	1272.065673828125	-292.2945556640625	894.0970458984375	1210.172241210938	-293.9325256347656	951.489990234375	1477.330688476562	-299.0653991699219	1130.5107421875	1386.897216796875	-295.2593383789062	888.0108032226562	1339.303100585938	-222.7148132324219	931.0137329101562	1439.186401367188	-400.7345581054688	1036.714233398438	1441.924682617188	-471.1839904785156	1025.22216796875	1312.918823242188	-546.97021484375	1056.86962890625	1097.467895507812	-559.2742919921875	991.9816284179688	1082.04248046875	-477.2839050292969	1154.76513671875	863.525634765625	-487.3529968261719	1100.476684570312	849.04931640625	-550.1198120117188	1082.437133789062	989.451416015625	-563.4981689453125	1176.890258789062	677.4710083007812	-466.5321044921875	1136.442626953125	769.3682250976562	-542.218017578125	1180.11962890625	781.8158569335938	-487.1015625	1015.019592285156	1440.325317382812	-121.8772201538086	1004.570251464844	1370.348388671875	-58.57978820800781	979.9088134765625	1103.109252929688	-34.96835708618164	999.0339965820312	1083.359985351562	-130.3559265136719	1134.088500976562	859.3856811523438	-78.21795654296875	1065.25	839.1725463867188	-28.81192398071289	996.910888671875	1022.93115234375	-29.2310733795166	1153.47900390625	671.5652465820312	-99.80367279052734	1164.185302734375	761.4903564453125	-83.22820281982422	1107.137939453125	750.6940307617188	-29.46574783325195	996.124755859375	1656.77197265625	-362.9489135742188	1158.0751953125	1685.471069335938	-221.7568969726562	1170.97412109375	1691.302368164062	-346.8538818359375	991.2030639648438	1643.343505859375	-226.1414337158203	999.9632568359375	953.2608642578125	-459.8095397949219	989.3904418945312	954.4796142578125	-117.0801391601562	1112.30908203125	966.2101440429688	-142.8620147705078	1116.756958007812	959.1832885742188	-411.8085632324219	1046.326782226562	488.8270874023438	-417.6819458007812	1023.520263671875	630.451416015625	-453.8207702636719	950.5927124023438	38.89269638061523	-439.3236389160156	990.31787109375	255.6281433105469	-443.0273132324219	1156.421997070312	30.91736030578613	-431.03125	1106.799682617188	31.97788619995117	-377.580810546875	1054.0263671875	28.15626907348633	-477.038818359375	897.5419311523438	36.21374893188477	-364.7855834960938	1042.889526367188	506.274658203125	-138.1186676025391	1063.757690429688	777.4273071289062	-106.9626770019531	941.7014770507812	36.16884613037109	-139.0565338134766	1016.151611328125	387.201171875	-131.5780944824219	1158.757202148438	28.6684627532959	-167.5093078613281	1098.824462890625	34.07147979736328	-210.0362396240234	1065.334838867188	36.73297500610352	-119.0803985595703	895.4688720703125	37.39910507202148	-196.5726776123047	
135	1.34	920.2550659179688	1028.070190429688	-190.4818267822266	902.2516479492188	1021.998291015625	-366.057861328125	916.5448608398438	1076.96826171875	-286.1034240722656	1159.385864257812	1272.056762695312	-291.9280395507812	893.7344970703125	1210.2431640625	-293.78173828125	951.398681640625	1477.394287109375	-298.8356323242188	1130.26025390625	1386.824340820312	-294.7723388671875	887.8389892578125	1339.446044921875	-222.5526428222656	930.96435546875	1439.26904296875	-400.5482177734375	1036.705688476562	1441.9384765625	-470.9277038574219	1025.2421875	1312.917724609375	-546.685791015625	1056.755126953125	1097.416748046875	-558.7799072265625	991.8362426757812	1082.126220703125	-476.8857727050781	1154.562622070312	863.5986938476562	-486.4010009765625	1100.3515625	849.0010375976562	-549.2298583984375	1082.30712890625	989.3617553710938	-562.8251342773438	1176.711059570312	677.5033569335938	-465.2332153320312	1136.3408203125	769.3269653320312	-541.141357421875	1179.963012695312	781.9196166992188	-486.0098571777344	1014.767333984375	1440.331298828125	-121.5941772460938	1004.097106933594	1370.369506835938	-58.41945266723633	979.0073852539062	1103.24755859375	-34.60967636108398	998.3531494140625	1083.385009765625	-129.8992614746094	1133.28564453125	859.4390258789062	-77.60179901123047	1064.414306640625	839.237548828125	-28.23375511169434	996.0870361328125	1023.018676757812	-28.72072601318359	1152.641479492188	671.584228515625	-99.18781280517578	1163.536743164062	761.9412841796875	-82.95628356933594	1106.287231445312	750.7493286132812	-28.86167526245117	996.1386108398438	1656.823974609375	-362.7103271484375	1158.036987304688	1685.433349609375	-221.3987884521484	1170.967041015625	1691.229614257812	-346.4419860839844	991.1300659179688	1643.399291992188	-225.8729705810547	1000.14501953125	953.2538452148438	-459.5853271484375	988.8975830078125	954.5119018554688	-116.8261260986328	1111.889770507812	966.2597045898438	-142.5759582519531	1116.49609375	959.2088012695312	-411.4676208496094	1046.472778320312	488.8631286621094	-417.4832153320312	1023.511413574219	630.497314453125	-453.6394653320312	950.6143798828125	38.90097427368164	-439.324951171875	990.47119140625	255.5954284667969	-442.9623107910156	1156.429809570312	30.90084075927734	-431.0154724121094	1106.816650390625	31.941162109375	-377.545166015625	1054.041137695312	28.13951110839844	-477.0350341796875	897.5267944335938	36.22662353515625	-364.8043518066406	1042.979614257812	506.3223876953125	-137.9120025634766	1063.472045898438	777.33447265625	-106.6570816040039	941.7155151367188	36.17390823364258	-139.0547943115234	1016.190246582031	387.1575012207031	-131.5130920410156	1158.753173828125	28.66745948791504	-167.5265197753906	1098.8271484375	34.0747184753418	-210.0442199707031	1065.345336914062	36.75431442260742	-119.0940017700195	895.4801635742188	37.43463897705078	-196.5765686035156	
136	1.35	920.5169067382812	1028.007568359375	-190.2221832275391	901.9415893554688	1022.044128417969	-365.8575439453125	916.2763061523438	1077.065185546875	-285.8988342285156	1159.156982421875	1272.055786132812	-291.5231323242188	893.3595581054688	1210.332641601562	-293.6190795898438	951.296630859375	1477.479370117188	-298.572998046875	1130.002197265625	1386.766357421875	-294.3016662597656	887.6231689453125	1339.60693359375	-222.3772277832031	930.892822265625	1439.362182617188	-400.3412780761719	1036.66943359375	1441.965087890625	-470.6359252929688	1025.252075195312	1312.930297851562	-546.3826904296875	1056.607666015625	1097.378784179688	-558.276123046875	991.59912109375	1082.232299804688	-476.4691162109375	1154.32666015625	863.6761474609375	-485.4693908691406	1100.181274414062	848.96923828125	-548.3544921875	1082.141479492188	989.29931640625	-562.1589965820312	1176.497802734375	677.5836181640625	-464.00341796875	1136.194458007812	769.3009643554688	-540.0890502929688	1179.76123046875	782.0296020507812	-484.9497680664062	1014.485412597656	1440.346923828125	-121.2979736328125	1003.631042480469	1370.39599609375	-58.22129440307617	978.0886840820312	1103.4052734375	-34.20187377929688	997.6765747070312	1083.416259765625	-129.3748626708984	1132.439819335938	859.4816284179688	-76.921142578125	1063.56298828125	839.3157958984375	-27.55814170837402	995.2496948242188	1023.124206542969	-28.14498710632324	1151.73779296875	671.5940551757812	-98.47317504882812	1162.751953125	762.1763305664062	-82.45491790771484	1105.38330078125	750.8056030273438	-28.1687183380127	996.1610717773438	1656.873413085938	-362.4583129882812	1157.976440429688	1685.412963867188	-221.0205078125	1170.9609375	1691.15087890625	-346.0073547363281	991.0025024414062	1643.4716796875	-225.5999450683594	1000.402465820312	953.2434692382812	-459.3305969238281	988.3404541015625	954.5504150390625	-116.5522766113281	1111.405517578125	966.30322265625	-142.2579040527344	1116.196899414062	959.2341918945312	-411.101318359375	1046.677978515625	488.8909912109375	-417.2515563964844	1023.541625976562	630.5457763671875	-453.4414978027344	950.640625	38.90584564208984	-439.3270263671875	990.67431640625	255.5651092529297	-442.8920593261719	1156.437133789062	30.88083457946777	-431.0000305175781	1106.831298828125	31.90140151977539	-377.5081176757812	1054.053100585938	28.12009811401367	-477.033447265625	897.5162353515625	36.24388885498047	-364.8255615234375	1043.087646484375	506.3789978027344	-137.6837921142578	1063.19970703125	777.29931640625	-106.3640823364258	941.7344360351562	36.18160247802734	-139.0572052001953	1016.245910644531	387.1143493652344	-131.4424285888672	1158.749267578125	28.66468811035156	-167.5454254150391	1098.832153320312	34.07725524902344	-210.0553436279297	1065.354614257812	36.78430938720703	-119.113525390625	895.4920654296875	37.46575164794922	-196.5831604003906	
